<?xml version="1.0" encoding="UTF-8"?>
<svg id="Capa_1" data-name="Capa 1" xmlns="http://www.w3.org/2000/svg" width="8cm" height="5.68cm" viewBox="0 0 226.77 161">
  <defs>
    <style>
      .cls-1 {
        fill: #1e1e1c;
        font-family: MyriadPro-Regular, 'Myriad Pro';
        font-size: 7.22px;
      }

      .cls-2 {
        letter-spacing: 0em;
      }

      .cls-3 {
        fill: #ffa400;
      }

      .cls-4 {
        fill: #f59f00;
      }

      .cls-5 {
        letter-spacing: -.08em;
      }

      .cls-6 {
        letter-spacing: -.08em;
      }

      .cls-7 {
        letter-spacing: -.03em;
      }

      .cls-8 {
        letter-spacing: -.03em;
      }

      .cls-9 {
        fill: #1a428a;
      }
    </style>
  </defs>
  <path class="cls-3" d="M114.67,15.13v9.43c3.14,1.05,5.55,4.14,5.58,7.71v.23c0,.21,0,.43,0,.65l102.81.02V15.13h-108.39Z"/>
  <path class="cls-9" d="M104.25,33.09c0-.29.17-1.42.25-1.83.24-2.14,1.35-4.13,3.05-5.47.86-.68,1.84-1.14,2.87-1.4v-9.26H4.66v18.03h99.58s0-.06,0-.08Z"/>
  <g>
    <path class="cls-3" d="M176.45,55.3c-1.86,0-3.49,1.37-3.93,3.43h7.88c-.32-2.06-1.95-3.43-3.96-3.43Z"/>
    <path class="cls-3" d="M150.13,64.34c1.13,0,2.09-.41,2.85-1.22.76-.81,1.13-1.86,1.13-3.14s-.38-2.3-1.13-3.14c-.76-.84-1.72-1.25-2.85-1.25-1.22,0-2.24.41-3.03,1.25-.79.84-1.16,1.89-1.16,3.14s.38,2.3,1.16,3.14c.79.81,1.8,1.22,3.03,1.22Z"/>
    <path class="cls-3" d="M120.28,37.39c0,1.59,0,3.19-.04,4.78-.06,2.76-1.5,5.25-3.87,6.68-.49.3-1.17.54-1.7.72v36.25c1.56.05,3.12.14,4.65.31,1.54.17,2.72.85,3.42,1.97.3.47.49,1,.57,1.56.48.12.86.28,1.08.38l.18.04c1.39.34,2.46.96,3.16,1.85,1.22.05,2.13.7,2.55,1,2.63,1.87,4.71,4.17,6.37,7.03,2.29,3.96,3.59,8.46,3.96,13.75.23.15.44.32.63.51,1.36,1.34,1.33,5.28,1.36,6.02.02.54.04,1,.07,1.46h0c0,.16,0,.31,0,.46h80.39V37.42l-102.78-.02ZM138.06,65.97c-1.51.99-3.29,1.48-5.35,1.48-3.08,0-5.58-.9-7.53-2.71l1.31-2.56c1.83,1.48,3.9,2.21,6.25,2.21,1.08,0,2.04-.23,2.85-.73.81-.49,1.22-1.13,1.22-1.95,0-1.08-1.05-1.86-1.95-2.18-.44-.15-1.08-.32-1.92-.52l-2.09-.52c-1.13-.35-2.68-1.05-3.49-1.77-.81-.73-1.45-1.95-1.45-3.37,0-1.66.67-2.97,2.01-3.9,1.34-.96,2.94-1.42,4.83-1.42,2.47,0,4.68.67,6.69,2.04l-1.31,2.59c-1.66-1.05-3.43-1.57-5.38-1.57-1.28,0-3.4.55-3.4,2.24,0,1.37,1.19,1.89,3.96,2.56,2.06.46,3.4.96,4.83,1.86,1.43.84,2.21,2.24,2.21,3.98,0,1.83-.76,3.26-2.27,4.25ZM184.98,52.77h2.12v-2.82l3.23-.67v3.49h4.33v2.65h-4.33v7.21c0,1.37.52,2.04,1.54,2.04.67,0,1.45-.29,1.8-.52l.29-.17.96,2.41c-1.11.73-2.27,1.08-3.46,1.08-2.91,0-4.36-1.63-4.36-4.92v-7.13h-2.12v-2.65ZM176.63,52.47c1.92,0,3.55.73,4.89,2.18,1.37,1.42,2.04,3.17,2.04,5.21l-.09,1.25h-10.91c.46,2.21,2.24,3.49,4.48,3.49,1.57,0,2.94-.41,4.13-1.25l1.28,2.38c-1.69,1.13-3.52,1.72-5.47,1.72-2.15,0-3.99-.67-5.5-2.01-1.51-1.37-2.27-3.17-2.27-5.47,0-2.06.73-3.84,2.15-5.29,1.42-1.48,3.2-2.21,5.26-2.21ZM142.65,59.98c0-2.12.64-3.9,1.89-5.32,1.28-1.45,2.91-2.18,4.89-2.18s3.52.84,4.68,2.56v-2.27h3.23v14.4h-3.23v-2.24c-1.13,1.69-2.71,2.53-4.68,2.53s-3.61-.73-4.89-2.15c-1.25-1.45-1.89-3.23-1.89-5.32ZM158.1,74.22h-10.5v4.59h8.87v2.88h-8.87v8.46h-3.37v-18.85h13.87v2.91ZM163.34,90.16h-3.23v-14.4h3.23v14.4ZM163.13,73.38c-.79.79-2.01.79-2.79,0-.73-.79-.73-2.04,0-2.76.79-.79,2.01-.79,2.79,0,.79.73.79,1.98,0,2.76ZM164.41,67.16h-3.23v-11.75h-2.27v-2.65h2.3v-.96c0-3.78,2.71-4.74,4.33-4.74s2.97.52,3.43.9l.35.29-1.28,2.18c-.73-.44-1.4-.67-1.98-.67-1.11,0-1.66.73-1.66,2.18v.81h3.98v2.65h-3.98v11.75ZM175.38,78.99c-3.46,0-5.21,1.77-5.21,5.29v5.88h-3.23v-14.4h3.23v2.85c.67-1.72,2.38-3.14,5.21-3.14v3.52ZM186.78,89.32c-1.25.76-2.67,1.13-4.25,1.13-2.65,0-4.71-1.05-5.79-2.09l1.22-2.65c1.42,1.13,2.94,1.72,4.57,1.72,1.48,0,2.85-.58,2.85-1.51,0-1.11-1.45-1.25-2.88-1.72-1.63-.47-2.47-.73-3.52-1.4s-1.54-1.63-1.54-3,.55-2.36,1.66-3.14c1.11-.79,2.36-1.19,3.75-1.19,1.77,0,3.49.5,5.15,1.48l-1.19,2.62c-1.25-.73-2.56-1.08-3.93-1.08-1.13,0-2.15.52-2.15,1.25,0,.32.15.58.41.79.55.38.93.47,2.06.7,3.26.7,5.47,1.95,5.47,4.62,0,1.54-.64,2.68-1.89,3.46ZM196.55,90.45c-2.91,0-4.36-1.63-4.36-4.92v-7.13h-2.12v-2.65h2.12v-2.82l3.23-.67v3.49h4.33v2.65h-4.33v7.21c0,1.37.52,2.04,1.54,2.04.67,0,1.45-.29,1.8-.52l.29-.17.96,2.41c-1.11.73-2.27,1.08-3.46,1.08ZM204.32,67.8c-1.08,2.41-2.97,3.64-5.67,3.64v-3.02c1.72,0,2.47-.55,3.17-2.07l.29-.58-6.22-13h3.32l3.46,7.68.93,2.27.93-2.41,3.11-7.53h3.26l-6.57,15.04Z"/>
  </g>
  <path class="cls-9" d="M108.79,49.19c-2-1.01-3.38-2.66-4.1-4.92-.03-.09-.09-.22-.09-.22-.16-.33-.35-1.54-.35-1.84,0,0,0-2.66,0-4.81H4.66v84.76h78.52c0-.2-.02-.39,0-.59.03-.49.05-.98.07-1.46.03-.75.12-2.34.12-2.34-.03-.67-.1-2.34,1.27-3.68.19-.19.41-.36.63-.51.4-5.29,1.72-9.79,4.02-13.73.46-.78.96-1.52,1.48-2.22-1.13,0-2.21-.01-3.08-.01-1.37,0-2.19-.35-2.97-1.49-3.62-5.34-7.35-10.6-11.04-15.89-.21-.3-.45-.59-1-1.3v18.58h-10.31c0-13.36-.04-24.97-.04-38.51h10.24c0,4.82.04,7.85.04,12.93,3.5-.19,6.85,0,10.04-.65,3.15-.64,5.89-3.88,5.4-8.2-.41-3.69-3.58-6.75-7.35-6.81-3.36-.05-30.41-.03-38.94-.02v-10.39c13.53-.01,28.82,0,38.79.06,11.87.07,20.31,11.12,17.38,22.62-1.3,5.11-4.4,8.91-9.04,11.43-.58.31-1.18.59-1.99.99,2.8,4.02,5.58,8.08,8.41,12.19.13-.1.25-.21.39-.3.38-.27,1.32-.94,2.56-.99.71-.89,1.77-1.51,3.17-1.84.09-.02.15-.04.19-.04.2-.09.58-.26,1.08-.37.08-.56.28-1.09.58-1.56.71-1.11,1.9-1.79,3.43-1.96,1.17-.13,2.41-.21,3.72-.26v-36.05c-.56-.13-1.1-.33-1.63-.6ZM59.91,97.7h-30.51c5.89-3.06,10.37-8.54,11.94-15.22v4.2h18.58v11.02ZM59.87,66.52v10.49h-20.36c-.2,1.37-.33,2.46-.51,3.54-1.62,9.9-10.65,17.32-20.72,17.11-1.28-.03-1.73-.4-1.69-1.71.09-2.85.03-5.93.03-8.74.38,0,.46,0,.61,0,7.29.1,11.52-3.69,11.7-10.85.16-6.39,0-19.18,0-19.18v-.91s-1.29,0-1.87,0c-3.03,0-6.06-.03-9.09.01-.97.01-1.39-.26-1.37-1.3.06-2.59.05-5.18,0-7.77-.02-1.03.4-1.32,1.37-1.31,1.91.03,3.82.02,5.73.02,4.66,0,9.93-.01,15.59-.02v10.39s.04,7.34.04,10.22h20.53Z"/>
  <path class="cls-3" d="M87.84,123.48c5.39,2.2,11.11,2.71,16.78,3,2.77.14,5.53.23,8.3.25,2.76,0,5.53-.09,8.3-.22,5.67-.26,11.4-.75,16.79-2.92.9-.36,1.26-.76,1.2-1.67-.07-1.2-.08-2.41-.18-3.61-.07-.83.4-1.97-1.29-1.87-.74.04-.5-.95-.53-1.51-.22-4.67-1.19-9.13-3.56-13.23-1.37-2.37-3.13-4.34-5.37-5.94-.39-.28-.62-.4-.81-.35-.33.09-.47.53-.54.73-.6,1.88-2.04,7.14-2.34,7.13-.15,0-.37-1.3-.21-2.86.14-1.38.54-3.31.8-5.34.21-1.64-1.32-1.44-2.17-1.84-.74-.34-1.51-.45-1.92.79-1.21,3.59-2.07,11.85-2.07,11.85-.07.63-.41,3.94-.63,3.93-.17,0-.21-2.07-.19-3.58.07-4.56.93-13.5,1.57-15.34.33-.93-.06-1.2-.85-1.29-1.98-.22-3.96-.33-5.93-.34-1.98,0-3.96.1-5.94.31-.79.09-1.18.35-.85,1.29.63,1.84,1.45,10.79,1.5,15.35.02,1.52-.04,3.58-.21,3.58-.22.01-.55-3.3-.61-3.93,0,0-.83-8.26-2.02-11.85-.41-1.24-1.18-1.14-1.92-.8-.85.39-2.38.19-2.18,1.83.25,2.03.64,3.96.78,5.34.15,1.57-.08,2.86-.22,2.86-.3.01-1.71-5.25-2.31-7.14-.06-.2-.21-.64-.54-.73-.18-.05-.42.07-.81.34-2.25,1.58-4.02,3.55-5.4,5.91-2.39,4.08-3.38,8.54-3.62,13.21-.03.56.21,1.55-.54,1.51-1.69-.11-1.23,1.04-1.3,1.87-.1,1.2-.11,2.4-.19,3.61-.06.91.3,1.31,1.2,1.68ZM92.38,117.15c6.78-1.57,13.61-2.52,20.56-2.55,6.96.06,13.78,1.04,20.55,2.64.61.14,1.54.18,1.35,1.08-.17.8-1.03.5-1.55.35-1.87-.55-3.8-.54-5.7-.84-4.86-.77-9.75-.98-14.66-1.01-4.91.01-9.8.2-14.66.95-1.9.29-3.83.28-5.7.81-.52.15-1.38.45-1.55-.35-.19-.9.74-.93,1.35-1.07Z"/>
  <g>
    <path class="cls-9" d="M106.05,33.16c0,.2,0,9.1,0,9.1l2.74-1.78v-6.2s-1.9-.77-2.74-1.11Z"/>
    <g>
      <path class="cls-9" d="M108.49,32.98c0-.36,0-.6,0-.84.02-2.93,2.9-4.87,5.59-3.7,1.74.76,2.42,2.26,2.44,4.07,0,.23,0,.46,0,.68h2.23c0-.29,0-.58,0-.87-.02-3.04-2.13-6.04-5.39-6.5-3.78-.53-6.73,2.38-7.07,5.7-.03.16-.08.39-.03.41.12.06,1.52.71,2.24,1.04Z"/>
      <path class="cls-9" d="M116.53,37.45c0,1.48,0,2.95,0,4.43,0,.47-.07.92-.2,1.37-.53,1.96-2.19,2.99-4.45,2.77-1.92-.19-3.13-1.44-3.28-3.45-.02-.22-.06-.54-.06-.54,0,0-.22.13-.4.25-.48.33-.99.62-1.49.92-.14.08-.4.23-.4.23,0,0,.11.24.16.4.57,1.78,1.64,3.15,3.31,3.99,4.05,2.04,8.92-.99,9.01-5.62.03-1.58.04-3.17.04-4.75h-2.24Z"/>
    </g>
  </g>
  <g>
    <path class="cls-4" d="M114.86,33.16c0-.16,0-.33,0-.49-.02-1.7-.78-2.25-1.44-2.54-.74-.32-1.53-.26-2.18.16-.67.44-1.06,1.18-1.07,2.02,0,0,0,.33,0,.85h4.68Z"/>
    <path class="cls-4" d="M110.22,37.42c.02,2.36.05,4.67.06,4.79.09,1.18.67,1.81,1.79,1.92,1,.1,2.27-.09,2.67-1.55.09-.33.14-.63.14-.92v-2.65c0-.53,0-1.06,0-1.59h-4.65Z"/>
  </g>
  <text class="cls-1" transform="translate(34.61 145.26)"><tspan class="cls-5" x="0" y="0">P</tspan><tspan x="3.23" y="0">AN</tspan><tspan class="cls-7" x="12.4" y="0">T</tspan><tspan x="15.79" y="0">ONE 7687 C</tspan></text>
  <text class="cls-1" transform="translate(155.27 145.26)"><tspan class="cls-6" x="0" y="0">P</tspan><tspan class="cls-2" x="3.23" y="0">AN</tspan><tspan class="cls-8" x="12.4" y="0">T</tspan><tspan x="15.79" y="0">ONE 137 C</tspan></text>
  <rect class="cls-9" x="16.61" y="136.85" width="12.58" height="12.58"/>
  <rect class="cls-3" x="136.38" y="136.85" width="12.58" height="12.58"/>
</svg>